# rfs_deepsleep_col 0819-h. Units: blocks. Hull 17x17x17. Origin center.
# Single convex hull: truncated cone. Top = metal/inner floor at y=-5.
# Tube cavity EMPTY above the floor (no tall walls — those filled the hole on G).
# Walk up the slope from the circular base onto the metal. Re-place the station.
s off
o col
v 0.000000 -5.000000 0.000000
v 0.000000 -8.500000 0.000000
v 8.220000 -8.500000 0.000000
v 4.000000 -5.000000 0.000000
v 5.812418 -8.500000 5.812418
v 2.828427 -5.000000 2.828427
v 0.000000 -8.500000 8.220000
v 0.000000 -5.000000 4.000000
v -5.812418 -8.500000 5.812418
v -2.828427 -5.000000 2.828427
v -8.220000 -8.500000 0.000000
v -4.000000 -5.000000 0.000000
v -5.812418 -8.500000 -5.812418
v -2.828427 -5.000000 -2.828427
v -0.000000 -8.500000 -8.220000
v -0.000000 -5.000000 -4.000000
v 5.812418 -8.500000 -5.812418
v 2.828427 -5.000000 -2.828427
f 1 4 6
f 1 6 8
f 1 8 10
f 1 10 12
f 1 12 14
f 1 14 16
f 1 16 18
f 1 18 4
f 2 5 3
f 2 7 5
f 2 9 7
f 2 11 9
f 2 13 11
f 2 15 13
f 2 17 15
f 2 3 17
f 3 5 6 4
f 5 7 8 6
f 7 9 10 8
f 9 11 12 10
f 11 13 14 12
f 13 15 16 14
f 15 17 18 16
f 17 3 4 18
