# rfs_crafting_station_col. SM blocks, Y up. Hull 6x5x4.
# Body inset on X; nubs only at the left/right vacuum windows.
g col
v -2.700000 -2.500000 -2.000000
v 2.700000 -2.500000 -2.000000
v 2.700000 2.500000 -2.000000
v -2.700000 2.500000 -2.000000
v -2.700000 -2.500000 2.000000
v 2.700000 -2.500000 2.000000
v 2.700000 2.500000 2.000000
v -2.700000 2.500000 2.000000
v -3.000000 -0.600000 -1.100000
v -2.550000 -0.600000 -1.100000
v -2.550000 0.600000 -1.100000
v -3.000000 0.600000 -1.100000
v -3.000000 -0.600000 0.100000
v -2.550000 -0.600000 0.100000
v -2.550000 0.600000 0.100000
v -3.000000 0.600000 0.100000
v 2.550000 -0.600000 -1.100000
v 3.000000 -0.600000 -1.100000
v 3.000000 0.600000 -1.100000
v 2.550000 0.600000 -1.100000
v 2.550000 -0.600000 0.100000
v 3.000000 -0.600000 0.100000
v 3.000000 0.600000 0.100000
v 2.550000 0.600000 0.100000
f 1 2 3 4
f 5 8 7 6
f 1 5 6 2
f 4 3 7 8
f 1 4 8 5
f 2 6 7 3
f 9 10 11 12
f 13 16 15 14
f 9 13 14 10
f 12 11 15 16
f 9 12 16 13
f 10 14 15 11
f 17 18 19 20
f 21 24 23 22
f 17 21 22 18
f 20 19 23 24
f 17 20 24 21
f 18 22 23 19
