<?xml version="1.0" encoding="utf-8"?>
<COLLADA xmlns="http://www.collada.org/2005/11/COLLADASchema" version="1.4.1" xmlns:xsi="http://www.w3.org/2001/XMLSchema-instance">
  <asset>
    <contributor>
      <author>Blender User</author>
      <authoring_tool>Blender 4.5.10 LTS commit date:2026-05-18, commit time:13:28, hash:6dc0b208d1b5</authoring_tool>
    </contributor>
    <created>2026-09-14T13:02:57</created>
    <modified>2026-09-14T13:02:57</modified>
    <unit name="meter" meter="1"/>
    <up_axis>Z_UP</up_axis>
  </asset>
  <library_effects/>
  <library_images/>
  <library_controllers/>
  <library_animations>
    <animation id="int_slider-anim" name="int_slider">
      <animation id="int_slider_int_slider_pose_matrix" name="int_slider">
        <source id="int_slider_int_slider_pose_matrix-input">
          <float_array id="int_slider_int_slider_pose_matrix-input-array" count="120">0.000000 0.008403 0.016807 0.025210 0.033613 0.042017 0.050420 0.058824 0.067227 0.075630 0.084034 0.092437 0.100840 0.109244 0.117647 0.126050 0.134454 0.142857 0.151261 0.159664 0.168067 0.176471 0.184874 0.193277 0.201681 0.210084 0.218487 0.226891 0.235294 0.243697 0.252101 0.260504 0.268908 0.277311 0.285714 0.294118 0.302521 0.310924 0.319328 0.327731 0.336134 0.344538 0.352941 0.361344 0.369748 0.378151 0.386555 0.394958 0.403361 0.411765 0.420168 0.428572 0.436975 0.445378 0.453782 0.462185 0.470588 0.478992 0.487395 0.495798 0.504202 0.512605 0.521008 0.529412 0.537815 0.546218 0.554622 0.563025 0.571429 0.579832 0.588235 0.596639 0.605042 0.613445 0.621849 0.630252 0.638655 0.647059 0.655462 0.663865 0.672269 0.680672 0.689076 0.697479 0.705882 0.714286 0.722689 0.731093 0.739496 0.747899 0.756303 0.764706 0.773109 0.781513 0.789916 0.798319 0.806723 0.815126 0.823529 0.831933 0.840336 0.848739 0.857143 0.865546 0.873950 0.882353 0.890756 0.899160 0.907563 0.915966 0.924370 0.932773 0.941176 0.949580 0.957983 0.966386 0.974790 0.983193 0.991597 1.000000</float_array>
          <technique_common>
            <accessor source="#int_slider_int_slider_pose_matrix-input-array" count="120" stride="1">
              <param name="TIME" type="float"/>
            </accessor>
          </technique_common>
        </source>
        <source id="int_slider_int_slider_pose_matrix-output">
          <float_array id="int_slider_int_slider_pose_matrix-output-array" count="1920">0.9999998 -7.96693e-5 5.96502e-4 1.814123 -7.96694e-5 0.9649482 0.2624404 -0.7154922 -5.96502e-4 -0.2624404 0.9649481 1.419831 0 0 0 1 0.9999998 -7.96693e-5 5.96502e-4 1.814123 -7.96694e-5 0.9649482 0.2624404 -0.7153811 -5.96502e-4 -0.2624404 0.9649481 1.419831 0 0 0 1 0.9999998 -7.96693e-5 5.96502e-4 1.814123 -7.96694e-5 0.9649482 0.2624404 -0.7150546 -5.96502e-4 -0.2624404 0.9649481 1.419831 0 0 0 1 0.9999998 -7.96693e-5 5.96502e-4 1.814123 -7.96694e-5 0.9649482 0.2624404 -0.7145228 -5.96502e-4 -0.2624404 0.9649481 1.419831 0 0 0 1 0.9999998 -7.96693e-5 5.96502e-4 1.814123 -7.96694e-5 0.9649482 0.2624404 -0.713796 -5.96502e-4 -0.2624404 0.9649481 1.419831 0 0 0 1 0.9999998 -7.96693e-5 5.96502e-4 1.814123 -7.96694e-5 0.9649482 0.2624404 -0.7128842 -5.96502e-4 -0.2624404 0.9649481 1.419831 0 0 0 1 0.9999998 -7.96693e-5 5.96502e-4 1.814123 -7.96694e-5 0.9649482 0.2624404 -0.7117979 -5.96502e-4 -0.2624404 0.9649481 1.419831 0 0 0 1 0.9999998 -7.96693e-5 5.96502e-4 1.814123 -7.96694e-5 0.9649482 0.2624404 -0.7105471 -5.96502e-4 -0.2624404 0.9649481 1.419831 0 0 0 1 0.9999998 -7.96693e-5 5.96502e-4 1.814123 -7.96694e-5 0.9649482 0.2624404 -0.709142 -5.96502e-4 -0.2624404 0.9649481 1.419831 0 0 0 1 0.9999998 -7.96693e-5 5.96502e-4 1.814123 -7.96694e-5 0.9649482 0.2624404 -0.7075929 -5.96502e-4 -0.2624404 0.9649481 1.419831 0 0 0 1 0.9999998 -7.96693e-5 5.96502e-4 1.814123 -7.96694e-5 0.9649482 0.2624404 -0.7059098 -5.96502e-4 -0.2624404 0.9649481 1.419831 0 0 0 1 0.9999998 -7.96693e-5 5.96502e-4 1.814123 -7.96694e-5 0.9649482 0.2624404 -0.7041032 -5.96502e-4 -0.2624404 0.9649481 1.419831 0 0 0 1 0.9999998 -7.96693e-5 5.96502e-4 1.814123 -7.96694e-5 0.9649482 0.2624404 -0.7021831 -5.96502e-4 -0.2624404 0.9649481 1.419831 0 0 0 1 0.9999998 -7.96693e-5 5.96502e-4 1.814123 -7.96694e-5 0.9649482 0.2624404 -0.7001596 -5.96502e-4 -0.2624404 0.9649481 1.419831 0 0 0 1 0.9999998 -7.96693e-5 5.96502e-4 1.814123 -7.96694e-5 0.9649482 0.2624404 -0.6980431 -5.96502e-4 -0.2624404 0.9649481 1.419831 0 0 0 1 0.9999998 -7.96693e-5 5.96502e-4 1.814123 -7.96694e-5 0.9649482 0.2624404 -0.6958437 -5.96502e-4 -0.2624404 0.9649481 1.419831 0 0 0 1 0.9999998 -7.96693e-5 5.96502e-4 1.814123 -7.96694e-5 0.9649482 0.2624404 -0.6935716 -5.96502e-4 -0.2624404 0.9649481 1.419831 0 0 0 1 0.9999998 -7.96693e-5 5.96502e-4 1.814123 -7.96694e-5 0.9649482 0.2624404 -0.691237 -5.96502e-4 -0.2624404 0.9649481 1.419831 0 0 0 1 0.9999998 -7.96693e-5 5.96502e-4 1.814123 -7.96694e-5 0.9649482 0.2624404 -0.68885 -5.96502e-4 -0.2624404 0.9649481 1.419831 0 0 0 1 0.9999998 -7.96693e-5 5.96502e-4 1.814123 -7.96694e-5 0.9649482 0.2624404 -0.686421 -5.96502e-4 -0.2624404 0.9649481 1.419831 0 0 0 1 0.9999998 -7.96693e-5 5.96502e-4 1.814123 -7.96694e-5 0.9649482 0.2624404 -0.6839601 -5.96502e-4 -0.2624404 0.9649481 1.419831 0 0 0 1 0.9999998 -7.96693e-5 5.96502e-4 1.814123 -7.96694e-5 0.9649482 0.2624404 -0.6814775 -5.96502e-4 -0.2624404 0.9649481 1.419831 0 0 0 1 0.9999998 -7.96693e-5 5.96502e-4 1.814123 -7.96694e-5 0.9649482 0.2624404 -0.6789833 -5.96502e-4 -0.2624404 0.9649481 1.419831 0 0 0 1 0.9999998 -7.96693e-5 5.96502e-4 1.814123 -7.96694e-5 0.9649482 0.2624404 -0.6764879 -5.96502e-4 -0.2624404 0.9649481 1.419831 0 0 0 1 0.9999998 -7.96693e-5 5.96502e-4 1.814123 -7.96694e-5 0.9649482 0.2624404 -0.6740013 -5.96502e-4 -0.2624404 0.9649481 1.419831 0 0 0 1 0.9999998 -7.96693e-5 5.96502e-4 1.814123 -7.96694e-5 0.9649482 0.2624404 -0.6715337 -5.96502e-4 -0.2624404 0.9649481 1.419831 0 0 0 1 0.9999998 -7.96693e-5 5.96502e-4 1.814123 -7.96694e-5 0.9649482 0.2624404 -0.6690955 -5.96502e-4 -0.2624404 0.9649481 1.419831 0 0 0 1 0.9999998 -7.96693e-5 5.96502e-4 1.814123 -7.96694e-5 0.9649482 0.2624404 -0.6666967 -5.96502e-4 -0.2624404 0.9649481 1.419831 0 0 0 1 0.9999998 -7.96693e-5 5.96502e-4 1.814123 -7.96694e-5 0.9649482 0.2624404 -0.6643475 -5.96502e-4 -0.2624404 0.9649481 1.419831 0 0 0 1 0.9999998 -7.96693e-5 5.96502e-4 1.814123 -7.96694e-5 0.9649482 0.2624404 -0.6620582 -5.96502e-4 -0.2624404 0.9649481 1.419831 0 0 0 1 0.9999998 -7.96693e-5 5.96502e-4 1.814123 -7.96694e-5 0.9649482 0.2624404 -0.6598369 -5.96502e-4 -0.2624404 0.9649481 1.419831 0 0 0 1 0.9999998 -7.96693e-5 5.96502e-4 1.814123 -7.96694e-5 0.9649482 0.2624404 -0.6576832 -5.96502e-4 -0.2624404 0.9649481 1.419831 0 0 0 1 0.9999998 -7.96693e-5 5.96502e-4 1.814123 -7.96694e-5 0.9649482 0.2624404 -0.6555947 -5.96502e-4 -0.2624404 0.9649481 1.419831 0 0 0 1 0.9999998 -7.96693e-5 5.96502e-4 1.814123 -7.96694e-5 0.9649482 0.2624404 -0.653569 -5.96502e-4 -0.2624404 0.9649481 1.419831 0 0 0 1 0.9999998 -7.96693e-5 5.96502e-4 1.814123 -7.96694e-5 0.9649482 0.2624404 -0.6516036 -5.96502e-4 -0.2624404 0.9649481 1.419831 0 0 0 1 0.9999998 -7.96693e-5 5.96502e-4 1.814123 -7.96694e-5 0.9649482 0.2624404 -0.6496962 -5.96502e-4 -0.2624404 0.9649481 1.419831 0 0 0 1 0.9999998 -7.96693e-5 5.96502e-4 1.814123 -7.96694e-5 0.9649482 0.2624404 -0.6478443 -5.96502e-4 -0.2624404 0.9649481 1.419831 0 0 0 1 0.9999998 -7.96693e-5 5.96502e-4 1.814123 -7.96694e-5 0.9649482 0.2624404 -0.6460456 -5.96502e-4 -0.2624404 0.9649481 1.419831 0 0 0 1 0.9999998 -7.96693e-5 5.96502e-4 1.814123 -7.96694e-5 0.9649482 0.2624404 -0.6442974 -5.96502e-4 -0.2624404 0.9649481 1.419831 0 0 0 1 0.9999998 -7.96693e-5 5.96502e-4 1.814123 -7.96694e-5 0.9649482 0.2624404 -0.6425976 -5.96502e-4 -0.2624404 0.9649481 1.419831 0 0 0 1 0.9999998 -7.96693e-5 5.96502e-4 1.814123 -7.96694e-5 0.9649482 0.2624404 -0.6409435 -5.96502e-4 -0.2624404 0.9649481 1.419831 0 0 0 1 0.9999998 -7.96693e-5 5.96502e-4 1.814123 -7.96694e-5 0.9649482 0.2624404 -0.6393329 -5.96502e-4 -0.2624404 0.9649481 1.419831 0 0 0 1 0.9999998 -7.96693e-5 5.96502e-4 1.814123 -7.96694e-5 0.9649482 0.2624404 -0.6377633 -5.96502e-4 -0.2624404 0.9649481 1.419831 0 0 0 1 0.9999998 -7.96693e-5 5.96502e-4 1.814123 -7.96694e-5 0.9649482 0.2624404 -0.6362322 -5.96502e-4 -0.2624404 0.9649481 1.419831 0 0 0 1 0.9999998 -7.96693e-5 5.96502e-4 1.814123 -7.96694e-5 0.9649482 0.2624404 -0.6347373 -5.96502e-4 -0.2624404 0.9649481 1.419831 0 0 0 1 0.9999998 -7.96693e-5 5.96502e-4 1.814123 -7.96694e-5 0.9649482 0.2624404 -0.633276 -5.96502e-4 -0.2624404 0.9649481 1.419831 0 0 0 1 0.9999998 -7.96693e-5 5.96502e-4 1.814123 -7.96694e-5 0.9649482 0.2624404 -0.6318461 -5.96502e-4 -0.2624404 0.9649481 1.419831 0 0 0 1 0.9999998 -7.96693e-5 5.96502e-4 1.814123 -7.96694e-5 0.9649482 0.2624404 -0.630445 -5.96502e-4 -0.2624404 0.9649481 1.419831 0 0 0 1 0.9999998 -7.96693e-5 5.96502e-4 1.814123 -7.96694e-5 0.9649482 0.2624404 -0.6290705 -5.96502e-4 -0.2624404 0.9649481 1.419831 0 0 0 1 0.9999998 -7.96693e-5 5.96502e-4 1.814123 -7.96694e-5 0.9649482 0.2624404 -0.6277199 -5.96502e-4 -0.2624404 0.9649481 1.419831 0 0 0 1 0.9999998 -7.96693e-5 5.96502e-4 1.814123 -7.96694e-5 0.9649482 0.2624404 -0.6263909 -5.96502e-4 -0.2624404 0.9649481 1.419831 0 0 0 1 0.9999998 -7.96693e-5 5.96502e-4 1.814123 -7.96694e-5 0.9649482 0.2624404 -0.6250812 -5.96502e-4 -0.2624404 0.9649481 1.419831 0 0 0 1 0.9999998 -7.96693e-5 5.96502e-4 1.814123 -7.96694e-5 0.9649482 0.2624404 -0.6237882 -5.96502e-4 -0.2624404 0.9649481 1.419831 0 0 0 1 0.9999998 -7.96693e-5 5.96502e-4 1.814123 -7.96694e-5 0.9649482 0.2624404 -0.6225095 -5.96502e-4 -0.2624404 0.9649481 1.419831 0 0 0 1 0.9999998 -7.96693e-5 5.96502e-4 1.814123 -7.96694e-5 0.9649482 0.2624404 -0.6212428 -5.96502e-4 -0.2624404 0.9649481 1.419831 0 0 0 1 0.9999998 -7.96693e-5 5.96502e-4 1.814123 -7.96694e-5 0.9649482 0.2624404 -0.6199856 -5.96502e-4 -0.2624404 0.9649481 1.419831 0 0 0 1 0.9999998 -7.96693e-5 5.96502e-4 1.814123 -7.96694e-5 0.9649482 0.2624404 -0.6187354 -5.96502e-4 -0.2624404 0.9649481 1.419831 0 0 0 1 0.9999998 -7.96693e-5 5.96502e-4 1.814123 -7.96694e-5 0.9649482 0.2624404 -0.6174899 -5.96502e-4 -0.2624404 0.9649481 1.419831 0 0 0 1 0.9999998 -7.96693e-5 5.96502e-4 1.814123 -7.96694e-5 0.9649482 0.2624404 -0.6162466 -5.96502e-4 -0.2624404 0.9649481 1.419831 0 0 0 1 0.9999998 -7.96693e-5 5.96502e-4 1.814123 -7.96694e-5 0.9649482 0.2624404 -0.6150032 -5.96502e-4 -0.2624404 0.9649481 1.419831 0 0 0 1 0.9999998 -7.96693e-5 5.96502e-4 1.814123 -7.96694e-5 0.9649482 0.2624404 -0.6137574 -5.96502e-4 -0.2624404 0.9649481 1.419831 0 0 0 1 0.9999998 -7.96693e-5 5.96502e-4 1.814123 -7.96694e-5 0.9649482 0.2624404 -0.6125085 -5.96502e-4 -0.2624404 0.9649481 1.419831 0 0 0 1 0.9999998 -7.96693e-5 5.96502e-4 1.814123 -7.96694e-5 0.9649482 0.2624404 -0.6112561 -5.96502e-4 -0.2624404 0.9649481 1.419831 0 0 0 1 0.9999998 -7.96693e-5 5.96502e-4 1.814123 -7.96694e-5 0.9649482 0.2624404 -0.6099996 -5.96502e-4 -0.2624404 0.9649481 1.419831 0 0 0 1 0.9999998 -7.96693e-5 5.96502e-4 1.814123 -7.96694e-5 0.9649482 0.2624404 -0.6087385 -5.96502e-4 -0.2624404 0.9649481 1.419831 0 0 0 1 0.9999998 -7.96693e-5 5.96502e-4 1.814123 -7.96694e-5 0.9649482 0.2624404 -0.6074724 -5.96502e-4 -0.2624404 0.9649481 1.419831 0 0 0 1 0.9999998 -7.96693e-5 5.96502e-4 1.814123 -7.96694e-5 0.9649482 0.2624404 -0.6062007 -5.96502e-4 -0.2624404 0.9649481 1.419831 0 0 0 1 0.9999998 -7.96693e-5 5.96502e-4 1.814123 -7.96694e-5 0.9649482 0.2624404 -0.6049229 -5.96502e-4 -0.2624404 0.9649481 1.419831 0 0 0 1 0.9999998 -7.96693e-5 5.96502e-4 1.814123 -7.96694e-5 0.9649482 0.2624404 -0.6036386 -5.96502e-4 -0.2624404 0.9649481 1.419831 0 0 0 1 0.9999998 -7.96693e-5 5.96502e-4 1.814123 -7.96694e-5 0.9649482 0.2624404 -0.6023474 -5.96502e-4 -0.2624404 0.9649481 1.419831 0 0 0 1 0.9999998 -7.96693e-5 5.96502e-4 1.814123 -7.96694e-5 0.9649482 0.2624404 -0.6010486 -5.96502e-4 -0.2624404 0.9649481 1.419831 0 0 0 1 0.9999998 -7.96693e-5 5.96502e-4 1.814123 -7.96694e-5 0.9649482 0.2624404 -0.5997418 -5.96502e-4 -0.2624404 0.9649481 1.419831 0 0 0 1 0.9999998 -7.96693e-5 5.96502e-4 1.814123 -7.96694e-5 0.9649482 0.2624404 -0.5984266 -5.96502e-4 -0.2624404 0.9649481 1.419831 0 0 0 1 0.9999998 -7.96693e-5 5.96502e-4 1.814123 -7.96694e-5 0.9649482 0.2624404 -0.5971023 -5.96502e-4 -0.2624404 0.9649481 1.419831 0 0 0 1 0.9999998 -7.96693e-5 5.96502e-4 1.814123 -7.96694e-5 0.9649482 0.2624404 -0.5957687 -5.96502e-4 -0.2624404 0.9649481 1.419831 0 0 0 1 0.9999998 -7.96693e-5 5.96502e-4 1.814123 -7.96694e-5 0.9649482 0.2624404 -0.594425 -5.96502e-4 -0.2624404 0.9649481 1.419831 0 0 0 1 0.9999998 -7.96693e-5 5.96502e-4 1.814123 -7.96694e-5 0.9649482 0.2624404 -0.5930709 -5.96502e-4 -0.2624404 0.9649481 1.419831 0 0 0 1 0.9999998 -7.96693e-5 5.96502e-4 1.814123 -7.96694e-5 0.9649482 0.2624404 -0.5917059 -5.96502e-4 -0.2624404 0.9649481 1.419831 0 0 0 1 0.9999998 -7.96693e-5 5.96502e-4 1.814123 -7.96694e-5 0.9649482 0.2624404 -0.5903295 -5.96502e-4 -0.2624404 0.9649481 1.419831 0 0 0 1 0.9999998 -7.96693e-5 5.96502e-4 1.814123 -7.96694e-5 0.9649482 0.2624404 -0.5889411 -5.96502e-4 -0.2624404 0.9649481 1.419831 0 0 0 1 0.9999998 -7.96693e-5 5.96502e-4 1.814123 -7.96694e-5 0.9649482 0.2624404 -0.5875404 -5.96502e-4 -0.2624404 0.9649481 1.419831 0 0 0 1 0.9999998 -7.96693e-5 5.96502e-4 1.814123 -7.96694e-5 0.9649482 0.2624404 -0.5861267 -5.96502e-4 -0.2624404 0.9649481 1.419831 0 0 0 1 0.9999998 -7.96693e-5 5.96502e-4 1.814123 -7.96694e-5 0.9649482 0.2624404 -0.5846997 -5.96502e-4 -0.2624404 0.9649481 1.419831 0 0 0 1 0.9999998 -7.96693e-5 5.96502e-4 1.814123 -7.96694e-5 0.9649482 0.2624404 -0.5832588 -5.96502e-4 -0.2624404 0.9649481 1.419831 0 0 0 1 0.9999998 -7.96693e-5 5.96502e-4 1.814123 -7.96694e-5 0.9649482 0.2624404 -0.5818036 -5.96502e-4 -0.2624404 0.9649481 1.419831 0 0 0 1 0.9999998 -7.96693e-5 5.96502e-4 1.814123 -7.96694e-5 0.9649482 0.2624404 -0.5803335 -5.96502e-4 -0.2624404 0.9649481 1.419831 0 0 0 1 0.9999998 -7.96693e-5 5.96502e-4 1.814123 -7.96694e-5 0.9649482 0.2624404 -0.5788481 -5.96502e-4 -0.2624404 0.9649481 1.419831 0 0 0 1 0.9999998 -7.96693e-5 5.96502e-4 1.814123 -7.96694e-5 0.9649482 0.2624404 -0.5773468 -5.96502e-4 -0.2624404 0.9649481 1.419831 0 0 0 1 0.9999998 -7.96693e-5 5.96502e-4 1.814123 -7.96694e-5 0.9649482 0.2624404 -0.5758293 -5.96502e-4 -0.2624404 0.9649481 1.419831 0 0 0 1 0.9999998 -7.96693e-5 5.96502e-4 1.814123 -7.96694e-5 0.9649482 0.2624404 -0.5742949 -5.96502e-4 -0.2624404 0.9649481 1.419831 0 0 0 1 0.9999998 -7.96693e-5 5.96502e-4 1.814123 -7.96694e-5 0.9649482 0.2624404 -0.5727441 -5.96502e-4 -0.2624404 0.9649481 1.419831 0 0 0 1 0.9999998 -7.96693e-5 5.96502e-4 1.814123 -7.96694e-5 0.9649482 0.2624404 -0.5711806 -5.96502e-4 -0.2624404 0.9649481 1.419831 0 0 0 1 0.9999998 -7.96693e-5 5.96502e-4 1.814123 -7.96694e-5 0.9649482 0.2624404 -0.5696089 -5.96502e-4 -0.2624404 0.9649481 1.419831 0 0 0 1 0.9999998 -7.96693e-5 5.96502e-4 1.814123 -7.96694e-5 0.9649482 0.2624404 -0.5680337 -5.96502e-4 -0.2624404 0.9649481 1.419831 0 0 0 1 0.9999998 -7.96693e-5 5.96502e-4 1.814123 -7.96694e-5 0.9649482 0.2624404 -0.5664595 -5.96502e-4 -0.2624404 0.9649481 1.419831 0 0 0 1 0.9999998 -7.96693e-5 5.96502e-4 1.814123 -7.96694e-5 0.9649482 0.2624404 -0.564891 -5.96502e-4 -0.2624404 0.9649481 1.419831 0 0 0 1 0.9999998 -7.96693e-5 5.96502e-4 1.814123 -7.96694e-5 0.9649482 0.2624404 -0.5633326 -5.96502e-4 -0.2624404 0.9649481 1.419831 0 0 0 1 0.9999998 -7.96693e-5 5.96502e-4 1.814123 -7.96694e-5 0.9649482 0.2624404 -0.561789 -5.96502e-4 -0.2624404 0.9649481 1.419831 0 0 0 1 0.9999998 -7.96693e-5 5.96502e-4 1.814123 -7.96694e-5 0.9649482 0.2624404 -0.5602648 -5.96502e-4 -0.2624404 0.9649481 1.419831 0 0 0 1 0.9999998 -7.96693e-5 5.96502e-4 1.814123 -7.96694e-5 0.9649482 0.2624404 -0.5587645 -5.96502e-4 -0.2624404 0.9649481 1.419831 0 0 0 1 0.9999998 -7.96693e-5 5.96502e-4 1.814123 -7.96694e-5 0.9649482 0.2624404 -0.5572927 -5.96502e-4 -0.2624404 0.9649481 1.419831 0 0 0 1 0.9999998 -7.96693e-5 5.96502e-4 1.814123 -7.96694e-5 0.9649482 0.2624404 -0.5558541 -5.96502e-4 -0.2624404 0.9649481 1.419831 0 0 0 1 0.9999998 -7.96693e-5 5.96502e-4 1.814123 -7.96694e-5 0.9649482 0.2624404 -0.5544531 -5.96502e-4 -0.2624404 0.9649481 1.419831 0 0 0 1 0.9999998 -7.96693e-5 5.96502e-4 1.814123 -7.96694e-5 0.9649482 0.2624404 -0.5530944 -5.96502e-4 -0.2624404 0.9649481 1.419831 0 0 0 1 0.9999998 -7.96693e-5 5.96502e-4 1.814123 -7.96694e-5 0.9649482 0.2624404 -0.5517825 -5.96502e-4 -0.2624404 0.9649481 1.419831 0 0 0 1 0.9999998 -7.96693e-5 5.96502e-4 1.814123 -7.96694e-5 0.9649482 0.2624404 -0.5505221 -5.96502e-4 -0.2624404 0.9649481 1.419831 0 0 0 1 0.9999998 -7.96693e-5 5.96502e-4 1.814123 -7.96694e-5 0.9649482 0.2624404 -0.5493177 -5.96502e-4 -0.2624404 0.9649481 1.419831 0 0 0 1 0.9999998 -7.96693e-5 5.96502e-4 1.814123 -7.96694e-5 0.9649482 0.2624404 -0.5481739 -5.96502e-4 -0.2624404 0.9649481 1.419831 0 0 0 1 0.9999998 -7.96693e-5 5.96502e-4 1.814123 -7.96694e-5 0.9649482 0.2624404 -0.5470953 -5.96502e-4 -0.2624404 0.9649481 1.419831 0 0 0 1 0.9999998 -7.96693e-5 5.96502e-4 1.814123 -7.96694e-5 0.9649482 0.2624404 -0.5460864 -5.96502e-4 -0.2624404 0.9649481 1.419831 0 0 0 1 0.9999998 -7.96693e-5 5.96502e-4 1.814123 -7.96694e-5 0.9649482 0.2624404 -0.5451518 -5.96502e-4 -0.2624404 0.9649481 1.419831 0 0 0 1 0.9999998 -7.96693e-5 5.96502e-4 1.814123 -7.96694e-5 0.9649482 0.2624404 -0.5442962 -5.96502e-4 -0.2624404 0.9649481 1.419831 0 0 0 1 0.9999998 -7.96693e-5 5.96502e-4 1.814123 -7.96694e-5 0.9649482 0.2624404 -0.5435241 -5.96502e-4 -0.2624404 0.9649481 1.419831 0 0 0 1 0.9999998 -7.96693e-5 5.96502e-4 1.814123 -7.96694e-5 0.9649482 0.2624404 -0.5428401 -5.96502e-4 -0.2624404 0.9649481 1.419831 0 0 0 1 0.9999998 -7.96693e-5 5.96502e-4 1.814123 -7.96694e-5 0.9649482 0.2624404 -0.5422487 -5.96502e-4 -0.2624404 0.9649481 1.419831 0 0 0 1 0.9999998 -7.96693e-5 5.96502e-4 1.814123 -7.96694e-5 0.9649482 0.2624404 -0.5417546 -5.96502e-4 -0.2624404 0.9649481 1.419831 0 0 0 1 0.9999998 -7.96693e-5 5.96502e-4 1.814123 -7.96694e-5 0.9649482 0.2624404 -0.5413623 -5.96502e-4 -0.2624404 0.9649481 1.419831 0 0 0 1 0.9999998 -7.96693e-5 5.96502e-4 1.814123 -7.96694e-5 0.9649482 0.2624404 -0.5410764 -5.96502e-4 -0.2624404 0.9649481 1.419831 0 0 0 1 0.9999998 -7.96693e-5 5.96502e-4 1.814123 -7.96694e-5 0.9649482 0.2624404 -0.5409015 -5.96502e-4 -0.2624404 0.9649481 1.419831 0 0 0 1 0.9999998 -7.96693e-5 5.96502e-4 1.814123 -7.96694e-5 0.9649482 0.2624404 -0.5408422 -5.96502e-4 -0.2624404 0.9649481 1.419831 0 0 0 1</float_array>
          <technique_common>
            <accessor source="#int_slider_int_slider_pose_matrix-output-array" count="120" stride="16">
              <param name="TRANSFORM" type="float4x4"/>
            </accessor>
          </technique_common>
        </source>
        <source id="int_slider_int_slider_pose_matrix-interpolation">
          <Name_array id="int_slider_int_slider_pose_matrix-interpolation-array" count="120">LINEAR LINEAR LINEAR LINEAR LINEAR LINEAR LINEAR LINEAR LINEAR LINEAR LINEAR LINEAR LINEAR LINEAR LINEAR LINEAR LINEAR LINEAR LINEAR LINEAR LINEAR LINEAR LINEAR LINEAR LINEAR LINEAR LINEAR LINEAR LINEAR LINEAR LINEAR LINEAR LINEAR LINEAR LINEAR LINEAR LINEAR LINEAR LINEAR LINEAR LINEAR LINEAR LINEAR LINEAR LINEAR LINEAR LINEAR LINEAR LINEAR LINEAR LINEAR LINEAR LINEAR LINEAR LINEAR LINEAR LINEAR LINEAR LINEAR LINEAR LINEAR LINEAR LINEAR LINEAR LINEAR LINEAR LINEAR LINEAR LINEAR LINEAR LINEAR LINEAR LINEAR LINEAR LINEAR LINEAR LINEAR LINEAR LINEAR LINEAR LINEAR LINEAR LINEAR LINEAR LINEAR LINEAR LINEAR LINEAR LINEAR LINEAR LINEAR LINEAR LINEAR LINEAR LINEAR LINEAR LINEAR LINEAR LINEAR LINEAR LINEAR LINEAR LINEAR LINEAR LINEAR LINEAR LINEAR LINEAR LINEAR LINEAR LINEAR LINEAR LINEAR LINEAR LINEAR LINEAR LINEAR LINEAR LINEAR LINEAR</Name_array>
          <technique_common>
            <accessor source="#int_slider_int_slider_pose_matrix-interpolation-array" count="120" stride="1">
              <param name="INTERPOLATION" type="name"/>
            </accessor>
          </technique_common>
        </source>
        <sampler id="int_slider_int_slider_pose_matrix-sampler">
          <input semantic="INPUT" source="#int_slider_int_slider_pose_matrix-input"/>
          <input semantic="OUTPUT" source="#int_slider_int_slider_pose_matrix-output"/>
          <input semantic="INTERPOLATION" source="#int_slider_int_slider_pose_matrix-interpolation"/>
        </sampler>
        <channel source="#int_slider_int_slider_pose_matrix-sampler" target="int_slider/matrix"/>
      </animation>
    </animation>
  </library_animations>
  <library_visual_scenes>
    <visual_scene id="Scene" name="Scene">
      <node id="j_root" name="j_root" sid="j_root" type="JOINT">
        <matrix sid="matrix">1 0 0 0 0 1 0 0 0 0 1 0 0 0 0 1</matrix>
        <node id="int_slider" name="int_slider" sid="int_slider" type="JOINT">
          <matrix sid="matrix">0.9999998 -7.96693e-5 5.96502e-4 1.814123 -7.96694e-5 0.9649482 0.2624404 -0.7154922 -5.96502e-4 -0.2624404 0.9649481 1.419831 0 0 0 1</matrix>
          <extra>
            <technique profile="blender">
              <collections type="string">Bones</collections>
              <roll sid="roll" type="float">0</roll>
              <tip_x sid="tip_x" type="float">-2.66075e-4</tip_x>
              <tip_y sid="tip_y" type="float">-0.1170639</tip_y>
              <tip_z sid="tip_z" type="float">-0.4304241</tip_z>
            </technique>
          </extra>
        </node>
        <node id="int_screen_rotate" name="int_screen_rotate" sid="int_screen_rotate" type="JOINT">
          <matrix sid="matrix">1.19209e-7 0 0.9999999 0.6487273 0 1 0 1.262083 -0.9999999 0 0 1.031847 0 0 0 1</matrix>
          <extra>
            <technique profile="blender">
              <collections type="string">Bones</collections>
              <tip_x sid="tip_x" type="float">-3.12968</tip_x>
              <tip_y sid="tip_y" type="float">0</tip_y>
              <tip_z sid="tip_z" type="float">0</tip_z>
            </technique>
          </extra>
        </node>
        <node id="int_root" name="int_root" sid="int_root" type="JOINT">
          <matrix sid="matrix">1 0 0 0.04766822 0 0 -1 0.4129025 0 1 0 -0.1502072 0 0 0 1</matrix>
          <extra>
            <technique profile="blender">
              <tip_x sid="tip_x" type="float">0</tip_x>
              <tip_y sid="tip_y" type="float">2.124659</tip_y>
              <tip_z sid="tip_z" type="float">0</tip_z>
            </technique>
          </extra>
        </node>
        <extra>
          <technique profile="blender">
            <collections sid="collections" type="string">Bones</collections>
            <visible_collections sid="visible_collections" type="string">Bones</visible_collections>
            <active_collection sid="active_collection" type="string">Bones</active_collection>
          </technique>
        </extra>
      </node>
          <extra><technique profile="FCOLLADA"><start_time>0.000000</start_time><end_time>1.000000</end_time></technique></extra>
    </visual_scene>
  </library_visual_scenes>
  <scene>
    <instance_visual_scene url="#Scene"/>
  </scene>
</COLLADA>