<?xml version="1.0" encoding="utf-8"?>
<COLLADA xmlns="http://www.collada.org/2005/11/COLLADASchema" version="1.4.1" xmlns:xsi="http://www.w3.org/2001/XMLSchema-instance">
  <asset>
    <contributor>
      <author>Blender User</author>
      <authoring_tool>Blender 4.5.10 LTS commit date:2026-05-18, commit time:13:28, hash:6dc0b208d1b5</authoring_tool>
    </contributor>
    <created>2026-09-14T13:02:57</created>
    <modified>2026-09-14T13:02:57</modified>
    <unit name="meter" meter="1"/>
    <up_axis>Z_UP</up_axis>
  </asset>
  <library_effects/>
  <library_images/>
  <library_controllers/>
  <library_animations>
    <animation id="int_screen_rotate-anim" name="int_screen_rotate">
      <animation id="int_screen_rotate_int_screen_rotate_pose_matrix" name="int_screen_rotate">
        <source id="int_screen_rotate_int_screen_rotate_pose_matrix-input">
          <float_array id="int_screen_rotate_int_screen_rotate_pose_matrix-input-array" count="45">0.000000 0.022727 0.045455 0.068182 0.090909 0.113636 0.136364 0.159091 0.181818 0.204545 0.227273 0.250000 0.272727 0.295455 0.318182 0.340909 0.363636 0.386364 0.409091 0.431818 0.454545 0.477273 0.500000 0.522727 0.545455 0.568182 0.590909 0.613637 0.636363 0.659091 0.681818 0.704545 0.727273 0.750000 0.772727 0.795455 0.818182 0.840909 0.863636 0.886364 0.909091 0.931818 0.954546 0.977273 1.000000</float_array>
          <technique_common>
            <accessor source="#int_screen_rotate_int_screen_rotate_pose_matrix-input-array" count="45" stride="1">
              <param name="TIME" type="float"/>
            </accessor>
          </technique_common>
        </source>
        <source id="int_screen_rotate_int_screen_rotate_pose_matrix-output">
          <float_array id="int_screen_rotate_int_screen_rotate_pose_matrix-output-array" count="720">1.19209e-7 0 0.9999999 0.6487273 0 1 0 1.262083 -0.9999999 0 0 1.031847 0 0 0 1 1.19209e-7 -3.59017e-10 0.9999999 0.6487273 0.003011656 0.9999955 0 1.262083 -0.9999954 0.003011656 0 1.031847 0 0 0 1 1.19201e-7 -1.41922e-9 0.9999999 0.6487273 0.01190527 0.9999291 0 1.262083 -0.9999291 0.01190527 0 1.031847 0 0 0 1 1.19167e-7 -3.16217e-9 0.9999999 0.6487273 0.02652621 0.9996481 0 1.262083 -0.999648 0.0265262 0 1.031847 0 0 0 1 1.19079e-7 -5.57706e-9 0.9999999 0.6487273 0.04678378 0.9989051 0 1.262083 -0.998905 0.04678378 0 1.031847 0 0 0 1 1.18894e-7 -8.65869e-9 0.9999999 0.6487273 0.07263438 0.9973586 0 1.262083 -0.9973586 0.07263438 0 1.031847 0 0 0 1 1.18562e-7 -1.24052e-8 0.9999999 0.6487273 0.1040626 0.9945707 0 1.262083 -0.9945707 0.1040626 0 1.031847 0 0 0 1 1.18017e-7 -1.68155e-8 0.9999999 0.6487273 0.141059 0.9900012 0 1.262083 -0.9900011 0.141059 0 1.031847 0 0 0 1 1.17183e-7 -2.18861e-8 0.9999999 0.6487273 0.1835937 0.9830022 0 1.262083 -0.9830021 0.1835937 0 1.031847 0 0 0 1 1.15969e-7 -2.76071e-8 0.9999999 0.6487273 0.2315847 0.9728147 0 1.262083 -0.9728147 0.2315847 0 1.031847 0 0 0 1 1.1427e-7 -3.3958e-8 0.9999999 0.6487273 0.2848601 0.9585691 0 1.262083 -0.958569 0.2848601 0 1.031847 0 0 0 1 1.11973e-7 -4.09023e-8 0.9999999 0.6487273 0.3431135 0.939294 0 1.262083 -0.9392939 0.3431134 0 1.031847 0 0 0 1 1.0895e-7 -4.83818e-8 0.9999999 0.6487273 0.4058559 0.9139371 0 1.262083 -0.913937 0.4058559 0 1.031847 0 0 0 1 1.05071e-7 -5.63102e-8 0.9999999 0.6487273 0.4723644 0.8814034 0 1.262083 -0.8814033 0.4723644 0 1.031847 0 0 0 1 1.00209e-7 -6.4568e-8 0.9999999 0.6487273 0.5416357 0.8406134 0 1.262083 -0.8406133 0.5416356 0 1.031847 0 0 0 1 9.42452e-8 -7.2998e-8 0.9999999 0.6487273 0.6123512 0.7905858 0 1.262083 -0.7905858 0.6123512 0 1.031847 0 0 0 1 8.70874e-8 -8.14042e-8 0.9999999 0.6487273 0.6828679 0.7305419 0 1.262083 -0.7305418 0.6828678 0 1.031847 0 0 0 1 7.86812e-8 -8.95551e-8 0.9999999 0.6487273 0.7512428 0.660026 0 1.262083 -0.6600259 0.7512428 0 1.031847 0 0 0 1 6.90254e-8 -9.71923e-8 0.9999999 0.6487273 0.8153085 0.5790269 0 1.262083 -0.5790269 0.8153084 0 1.031847 0 0 0 1 5.81839e-8 -1.04046e-7 0.9999999 0.6487273 0.8727978 0.488082 0 1.262083 -0.4880819 0.8727977 0 1.031847 0 0 0 1 4.62929e-8 -1.09854e-7 0.9999999 0.6487273 0.921519 0.3883331 0 1.262083 -0.3883331 0.921519 0 1.031847 0 0 0 1 3.35598e-8 -1.14388e-7 0.9999999 0.6487273 0.9595554 0.2815198 0 1.262083 -0.2815197 0.9595553 0 1.031847 0 0 0 1 2.02522e-8 -1.17476e-7 0.9999999 0.6487273 0.9854634 0.1698876 0 1.262083 -0.1698876 0.9854633 0 1.031847 0 0 0 1 6.67857e-9 -1.19022e-7 0.9999999 0.6487273 0.9984297 0.0560239 0 1.262083 -0.0560239 0.9984296 0 1.031847 0 0 0 1 -6.8378e-9 -1.19013e-7 0.9999999 0.6487273 0.9983535 -0.05735961 0 1.262083 0.05735961 0.9983535 0 1.031847 0 0 0 1 -1.99871e-8 -1.17522e-7 0.9999999 0.6487273 0.9858441 -0.1676643 0 1.262083 0.1676643 0.985844 0 1.031847 0 0 0 1 -3.24976e-8 -1.14694e-7 0.9999999 0.6487273 0.9621249 -0.2726093 0 1.262083 0.2726092 0.9621248 0 1.031847 0 0 0 1 -4.41532e-8 -1.10731e-7 0.9999999 0.6487273 0.9288788 -0.3703838 0 1.262083 0.3703838 0.9288787 0 1.031847 0 0 0 1 -5.48033e-8 -1.05865e-7 0.9999999 0.6487273 0.888062 -0.4597237 0 1.262083 0.4597236 0.8880619 0 1.031847 0 0 0 1 -6.43626e-8 -1.00341e-7 0.9999999 0.6487273 0.8417206 -0.5399129 0 1.262083 0.5399128 0.8417206 0 1.031847 0 0 0 1 -7.28048e-8 -9.43945e-8 0.9999999 0.6487273 0.7918381 -0.6107308 0 1.262083 0.6107308 0.791838 0 1.031847 0 0 0 1 -8.01517e-8 -8.82415e-8 0.9999999 0.6487273 0.7402233 -0.6723608 0 1.262083 0.6723608 0.7402233 0 1.031847 0 0 0 1 -8.64609e-8 -8.20693e-8 0.9999999 0.6487273 0.6884474 -0.7252864 0 1.262083 0.7252863 0.6884473 0 1.031847 0 0 0 1 -9.18135e-8 -7.60337e-8 0.9999999 0.6487273 0.6378169 -0.7701878 0 1.262083 0.7701877 0.6378168 0 1.031847 0 0 0 1 -9.63039e-8 -7.02596e-8 0.9999999 0.6487273 0.5893803 -0.8078556 0 1.262083 0.8078555 0.5893802 0 1.031847 0 0 0 1 -1.00031e-7 -6.48439e-8 0.9999999 0.6487273 0.5439503 -0.8391173 0 1.262083 0.8391173 0.5439503 0 1.031847 0 0 0 1 -1.03091e-7 -5.98598e-8 0.9999999 0.6487273 0.5021403 -0.8647859 0 1.262083 0.8647859 0.5021402 0 1.031847 0 0 0 1 -1.05574e-7 -5.53613e-8 0.9999999 0.6487273 0.4644044 -0.885623 0 1.262083 0.885623 0.4644044 0 1.031847 0 0 0 1 -1.07565e-7 -5.1388e-8 0.9999999 0.6487273 0.4310736 -0.9023165 0 1.262083 0.9023165 0.4310735 0 1.031847 0 0 0 1 -1.09132e-7 -4.7969e-8 0.9999999 0.6487273 0.4023931 -0.915467 0 1.262083 0.9154669 0.402393 0 1.031847 0 0 0 1 -1.10338e-7 -4.51269e-8 0.9999999 0.6487273 0.3785523 -0.9255798 0 1.262083 0.9255797 0.3785523 0 1.031847 0 0 0 1 -1.1123e-7 -4.28811e-8 0.9999999 0.6487273 0.3597131 -0.9330631 0 1.262083 0.933063 0.359713 0 1.031847 0 0 0 1 -1.11845e-7 -4.125e-8 0.9999999 0.6487273 0.3460303 -0.9382232 0 1.262083 0.9382232 0.3460302 0 1.031847 0 0 0 1 -1.12207e-7 -4.02537e-8 0.9999999 0.6487273 0.3376724 -0.9412634 0 1.262083 0.9412633 0.3376724 0 1.031847 0 0 0 1 -1.42109e-14 0 0.9999999 0.6487273 0.3348359 -0.9422768 -6.63712e-16 1.262083 0.9422768 0.3348359 -1.19209e-7 1.031847 0 0 0 1</float_array>
          <technique_common>
            <accessor source="#int_screen_rotate_int_screen_rotate_pose_matrix-output-array" count="45" stride="16">
              <param name="TRANSFORM" type="float4x4"/>
            </accessor>
          </technique_common>
        </source>
        <source id="int_screen_rotate_int_screen_rotate_pose_matrix-interpolation">
          <Name_array id="int_screen_rotate_int_screen_rotate_pose_matrix-interpolation-array" count="45">LINEAR LINEAR LINEAR LINEAR LINEAR LINEAR LINEAR LINEAR LINEAR LINEAR LINEAR LINEAR LINEAR LINEAR LINEAR LINEAR LINEAR LINEAR LINEAR LINEAR LINEAR LINEAR LINEAR LINEAR LINEAR LINEAR LINEAR LINEAR LINEAR LINEAR LINEAR LINEAR LINEAR LINEAR LINEAR LINEAR LINEAR LINEAR LINEAR LINEAR LINEAR LINEAR LINEAR LINEAR LINEAR</Name_array>
          <technique_common>
            <accessor source="#int_screen_rotate_int_screen_rotate_pose_matrix-interpolation-array" count="45" stride="1">
              <param name="INTERPOLATION" type="name"/>
            </accessor>
          </technique_common>
        </source>
        <sampler id="int_screen_rotate_int_screen_rotate_pose_matrix-sampler">
          <input semantic="INPUT" source="#int_screen_rotate_int_screen_rotate_pose_matrix-input"/>
          <input semantic="OUTPUT" source="#int_screen_rotate_int_screen_rotate_pose_matrix-output"/>
          <input semantic="INTERPOLATION" source="#int_screen_rotate_int_screen_rotate_pose_matrix-interpolation"/>
        </sampler>
        <channel source="#int_screen_rotate_int_screen_rotate_pose_matrix-sampler" target="int_screen_rotate/matrix"/>
      </animation>
    </animation>
  </library_animations>
  <library_visual_scenes>
    <visual_scene id="Scene" name="Scene">
      <node id="j_root" name="j_root" sid="j_root" type="JOINT">
        <matrix sid="matrix">1 0 0 0 0 1 0 0 0 0 1 0 0 0 0 1</matrix>
        <node id="int_slider" name="int_slider" sid="int_slider" type="JOINT">
          <matrix sid="matrix">0.9999998 -7.96693e-5 5.96502e-4 1.814123 -7.96694e-5 0.9649482 0.2624404 -0.7154922 -5.96502e-4 -0.2624404 0.9649481 1.419831 0 0 0 1</matrix>
          <extra>
            <technique profile="blender">
              <collections type="string">Bones</collections>
              <roll sid="roll" type="float">0</roll>
              <tip_x sid="tip_x" type="float">-2.66075e-4</tip_x>
              <tip_y sid="tip_y" type="float">-0.1170639</tip_y>
              <tip_z sid="tip_z" type="float">-0.4304241</tip_z>
            </technique>
          </extra>
        </node>
        <node id="int_screen_rotate" name="int_screen_rotate" sid="int_screen_rotate" type="JOINT">
          <matrix sid="matrix">1.19209e-7 0 0.9999999 0.6487273 0 1 0 1.262083 -0.9999999 0 0 1.031847 0 0 0 1</matrix>
          <extra>
            <technique profile="blender">
              <collections type="string">Bones</collections>
              <tip_x sid="tip_x" type="float">-3.12968</tip_x>
              <tip_y sid="tip_y" type="float">0</tip_y>
              <tip_z sid="tip_z" type="float">0</tip_z>
            </technique>
          </extra>
        </node>
        <node id="int_root" name="int_root" sid="int_root" type="JOINT">
          <matrix sid="matrix">1 0 0 0.04766822 0 0 -1 0.4129025 0 1 0 -0.1502072 0 0 0 1</matrix>
          <extra>
            <technique profile="blender">
              <tip_x sid="tip_x" type="float">0</tip_x>
              <tip_y sid="tip_y" type="float">2.124659</tip_y>
              <tip_z sid="tip_z" type="float">0</tip_z>
            </technique>
          </extra>
        </node>
        <extra>
          <technique profile="blender">
            <collections sid="collections" type="string">Bones</collections>
            <visible_collections sid="visible_collections" type="string">Bones</visible_collections>
            <active_collection sid="active_collection" type="string">Bones</active_collection>
          </technique>
        </extra>
      </node>
          <extra><technique profile="FCOLLADA"><start_time>0.000000</start_time><end_time>1.000000</end_time></technique></extra>
    </visual_scene>
  </library_visual_scenes>
  <scene>
    <instance_visual_scene url="#Scene"/>
  </scene>
</COLLADA>