<?xml version="1.0" encoding="utf-8"?>
<COLLADA xmlns="http://www.collada.org/2005/11/COLLADASchema" version="1.4.1" xmlns:xsi="http://www.w3.org/2001/XMLSchema-instance">
  <asset>
    <contributor>
      <author>Blender User</author>
      <authoring_tool>Blender 4.4.0 commit date:2025-03-17, commit time:17:00, hash:05377985c527</authoring_tool>
    </contributor>
    <created>2026-08-18T01:27:13</created>
    <modified>2026-08-18T01:27:13</modified>
    <unit name="meter" meter="1"/>
    <up_axis>Z_UP</up_axis>
  </asset>
  <library_effects>
    <effect id="chemfill-effect">
      <profile_COMMON>
        <technique sid="common">
          <lambert>
            <emission>
              <color sid="emission">0 0 0 1</color>
            </emission>
            <diffuse>
              <color sid="diffuse">0.8 0.8 0.8 1</color>
            </diffuse>
            <index_of_refraction>
              <float sid="ior">1.5</float>
            </index_of_refraction>
          </lambert>
        </technique>
      </profile_COMMON>
    </effect>
  </library_effects>
  <library_images/>
  <library_materials>
    <material id="chemfill-material" name="chemfill">
      <instance_effect url="#chemfill-effect"/>
    </material>
  </library_materials>
  <library_geometries>
    <geometry id="rfs_chemfill_v9-mesh" name="rfs_chemfill_v9">
      <mesh>
        <source id="rfs_chemfill_v9-mesh-positions">
          <float_array id="rfs_chemfill_v9-mesh-positions-array" count="120">0 0.649873 -1.197325 0 0.649873 1.057675 0.2008218 0.618066 -1.197325 0.2008218 0.618066 1.057675 0.3819858 0.5257583 -1.197325 0.3819858 0.5257583 1.057675 0.5257583 0.3819857 -1.197325 0.5257583 0.3819857 1.057675 0.618066 0.2008217 -1.197325 0.618066 0.2008217 1.057675 0.649873 0 -1.197325 0.649873 0 1.057675 0.618066 -0.2008218 -1.197325 0.618066 -0.2008218 1.057675 0.5257583 -0.3819859 -1.197325 0.5257583 -0.3819859 1.057675 0.3819858 -0.5257584 -1.197325 0.3819858 -0.5257584 1.057675 0.2008218 -0.6180661 -1.197325 0.2008218 -0.6180661 1.057675 0 -0.6498731 -1.197325 0 -0.6498731 1.057675 -0.2008218 -0.6180661 -1.197325 -0.2008218 -0.6180661 1.057675 -0.3819858 -0.5257584 -1.197325 -0.3819858 -0.5257584 1.057675 -0.5257583 -0.3819859 -1.197325 -0.5257583 -0.3819859 1.057675 -0.618066 -0.2008218 -1.197325 -0.618066 -0.2008218 1.057675 -0.649873 0 -1.197325 -0.649873 0 1.057675 -0.618066 0.2008217 -1.197325 -0.618066 0.2008217 1.057675 -0.5257583 0.3819857 -1.197325 -0.5257583 0.3819857 1.057675 -0.3819858 0.5257583 -1.197325 -0.3819858 0.5257583 1.057675 -0.2008218 0.618066 -1.197325 -0.2008218 0.618066 1.057675</float_array>
          <technique_common>
            <accessor source="#rfs_chemfill_v9-mesh-positions-array" count="40" stride="3">
              <param name="X" type="float"/>
              <param name="Y" type="float"/>
              <param name="Z" type="float"/>
            </accessor>
          </technique_common>
        </source>
        <source id="rfs_chemfill_v9-mesh-normals">
          <float_array id="rfs_chemfill_v9-mesh-normals-array" count="228">0.1564342 0.9876884 0 0.4539906 0.8910065 0 0.7071068 0.7071068 0 0.8910065 0.4539906 0 0.9876884 0.1564342 0 0.9876884 -0.1564342 0 0.8910065 -0.4539906 0 0.7071068 -0.7071068 0 0.4539906 -0.8910065 0 0.1564342 -0.9876884 0 -0.1564342 -0.9876884 0 -0.4539906 -0.8910065 0 -0.7071068 -0.7071068 0 -0.8910065 -0.4539906 0 -0.9876884 -0.1564342 0 -0.9876884 0.1564342 0 -0.8910065 0.4539906 0 -0.7071068 0.7071068 0 0 0 1 -0.4539906 0.8910065 0 -0.1564342 0.9876884 0 0 0 -1 0.1564342 0.9876884 0 0.4539906 0.8910065 0 0.7071068 0.7071068 0 0.8910065 0.4539906 0 0.9876884 0.1564342 0 0.9876884 -0.1564342 0 0.8910065 -0.4539906 0 0.7071068 -0.7071068 0 0.4539906 -0.8910065 0 0.1564342 -0.9876884 0 -0.1564342 -0.9876884 0 -0.4539906 -0.8910065 0 -0.7071068 -0.7071068 0 -0.8910065 -0.4539906 0 -0.9876884 -0.1564342 0 -0.9876884 0.1564342 0 -0.8910065 0.4539906 0 -0.7071068 0.7071068 0 0 0 1 0 0 1 0 0 1 0 0 1 0 0 1 0 0 1 0 0 1 0 0 1 0 0 1 0 0 1 0 0 1 0 0 1 0 0 1 0 0 1 0 0 1 0 0 1 0 0 1 -0.4539906 0.8910065 0 -0.1564342 0.9876884 0 0 0 -1 0 0 -1 0 0 -1 0 0 -1 0 0 -1 0 0 -1 0 0 -1 0 0 -1 0 0 -1 0 0 -1 0 0 -1 0 0 -1 0 0 -1 0 0 -1 0 0 -1 0 0 -1 0 0 -1</float_array>
          <technique_common>
            <accessor source="#rfs_chemfill_v9-mesh-normals-array" count="76" stride="3">
              <param name="X" type="float"/>
              <param name="Y" type="float"/>
              <param name="Z" type="float"/>
            </accessor>
          </technique_common>
        </source>
        <source id="rfs_chemfill_v9-mesh-map-0">
          <float_array id="rfs_chemfill_v9-mesh-map-0-array" count="456">1 1 0.95 0.5 1 0.5 0.95 1 0.9 0.5 0.95 0.5 0.9 1 0.85 0.5 0.9 0.5 0.85 1 0.8 0.5 0.85 0.5 0.8 1 0.75 0.5 0.8 0.5 0.75 1 0.6999999 0.5 0.75 0.5 0.6999999 1 0.6499999 0.5 0.6999999 0.5 0.6499999 1 0.5999999 0.5 0.6499999 0.5 0.5999999 1 0.5499999 0.5 0.5999999 0.5 0.5499999 1 0.4999999 0.5 0.5499999 0.5 0.4999999 1 0.4499999 0.5 0.4999999 0.5 0.4499999 1 0.3999999 0.5 0.4499999 0.5 0.3999999 1 0.3499999 0.5 0.3999999 0.5 0.3499999 1 0.2999998 0.5 0.3499999 0.5 0.2999998 1 0.2499998 0.5 0.2999998 0.5 0.2499998 1 0.1999998 0.5 0.2499998 0.5 0.1999998 1 0.1499998 0.5 0.1999998 0.5 0.1499998 1 0.09999984 0.5 0.1499998 0.5 0.25 0.00999999 0.4782536 0.1758359 0.3910685 0.444164 0.09999984 1 0.04999983 0.5 0.09999984 0.5 0.04999983 1 -1.56462e-7 0.5 0.04999983 0.5 0.944164 0.1089315 0.6758359 0.02174639 0.51 0.25 1 1 0.95 1 0.95 0.5 0.95 1 0.9 1 0.9 0.5 0.9 1 0.85 1 0.85 0.5 0.85 1 0.8 1 0.8 0.5 0.8 1 0.75 1 0.75 0.5 0.75 1 0.6999999 1 0.6999999 0.5 0.6999999 1 0.6499999 1 0.6499999 0.5 0.6499999 1 0.5999999 1 0.5999999 0.5 0.5999999 1 0.5499999 1 0.5499999 0.5 0.5499999 1 0.4999999 1 0.4999999 0.5 0.4999999 1 0.4499999 1 0.4499999 0.5 0.4499999 1 0.3999999 1 0.3999999 0.5 0.3999999 1 0.3499999 1 0.3499999 0.5 0.3499999 1 0.2999998 1 0.2999998 0.5 0.2999998 1 0.2499998 1 0.2499998 0.5 0.2499998 1 0.1999998 1 0.1999998 0.5 0.1999998 1 0.1499998 1 0.1499998 0.5 0.1499998 1 0.09999984 1 0.09999984 0.5 0.3910685 0.444164 0.3241641 0.4782536 0.25 0.49 0.25 0.49 0.1758359 0.4782536 0.1089315 0.444164 0.1089315 0.444164 0.0558359 0.3910685 0.02174639 0.3241641 0.02174639 0.3241641 0.00999999 0.25 0.1089315 0.444164 0.00999999 0.25 0.02174639 0.1758359 0.1089315 0.444164 0.02174639 0.1758359 0.0558359 0.1089315 0.25 0.00999999 0.0558359 0.1089315 0.1089315 0.0558359 0.25 0.00999999 0.1089315 0.0558359 0.1758359 0.02174639 0.25 0.00999999 0.25 0.00999999 0.3241641 0.02174639 0.3910685 0.0558359 0.3910685 0.0558359 0.444164 0.1089315 0.4782536 0.1758359 0.4782536 0.1758359 0.49 0.25 0.3910685 0.444164 0.49 0.25 0.4782536 0.3241641 0.3910685 0.444164 0.4782536 0.3241641 0.444164 0.3910685 0.3910685 0.444164 0.3910685 0.444164 0.25 0.49 0.1089315 0.444164 0.25 0.00999999 0.3910685 0.0558359 0.4782536 0.1758359 0.3910685 0.444164 0.1089315 0.444164 0.02174639 0.1758359 0.02174639 0.1758359 0.25 0.00999999 0.3910685 0.444164 0.09999984 1 0.04999983 1 0.04999983 0.5 0.04999983 1 -1.56462e-7 1 -1.56462e-7 0.5 0.6758359 0.4782536 0.75 0.49 0.944164 0.3910685 0.75 0.49 0.8241641 0.4782536 0.944164 0.3910685 0.8241641 0.4782536 0.8910685 0.444164 0.944164 0.3910685 0.944164 0.3910685 0.9782536 0.3241641 0.99 0.25 0.99 0.25 0.9782536 0.1758359 0.944164 0.1089315 0.944164 0.1089315 0.8910685 0.0558359 0.8241641 0.02174639 0.8241641 0.02174639 0.75 0.00999999 0.944164 0.1089315 0.75 0.00999999 0.6758359 0.02174639 0.944164 0.1089315 0.6758359 0.02174639 0.6089316 0.0558359 0.51 0.25 0.6089316 0.0558359 0.555836 0.1089315 0.51 0.25 0.555836 0.1089315 0.5217464 0.1758359 0.51 0.25 0.51 0.25 0.5217464 0.3241641 0.555836 0.3910685 0.555836 0.3910685 0.6089316 0.444164 0.6758359 0.4782536 0.944164 0.3910685 0.99 0.25 0.944164 0.1089315 0.51 0.25 0.555836 0.3910685 0.6758359 0.4782536 0.6758359 0.4782536 0.944164 0.3910685 0.51 0.25 0.944164 0.3910685 0.944164 0.1089315 0.51 0.25</float_array>
          <technique_common>
            <accessor source="#rfs_chemfill_v9-mesh-map-0-array" count="228" stride="2">
              <param name="S" type="float"/>
              <param name="T" type="float"/>
            </accessor>
          </technique_common>
        </source>
        <vertices id="rfs_chemfill_v9-mesh-vertices">
          <input semantic="POSITION" source="#rfs_chemfill_v9-mesh-positions"/>
        </vertices>
        <triangles material="chemfill-material" count="76">
          <input semantic="VERTEX" source="#rfs_chemfill_v9-mesh-vertices" offset="0"/>
          <input semantic="NORMAL" source="#rfs_chemfill_v9-mesh-normals" offset="1"/>
          <input semantic="TEXCOORD" source="#rfs_chemfill_v9-mesh-map-0" offset="2" set="0"/>
          <p>1 0 0 2 0 1 0 0 2 3 1 3 4 1 4 2 1 5 5 2 6 6 2 7 4 2 8 7 3 9 8 3 10 6 3 11 9 4 12 10 4 13 8 4 14 11 5 15 12 5 16 10 5 17 13 6 18 14 6 19 12 6 20 15 7 21 16 7 22 14 7 23 17 8 24 18 8 25 16 8 26 19 9 27 20 9 28 18 9 29 21 10 30 22 10 31 20 10 32 23 11 33 24 11 34 22 11 35 25 12 36 26 12 37 24 12 38 27 13 39 28 13 40 26 13 41 29 14 42 30 14 43 28 14 44 31 15 45 32 15 46 30 15 47 33 16 48 34 16 49 32 16 50 35 17 51 36 17 52 34 17 53 21 18 54 13 18 55 5 18 56 37 19 57 38 19 58 36 19 59 39 20 60 0 20 61 38 20 62 14 21 63 22 21 64 30 21 65 1 22 66 3 22 67 2 22 68 3 23 69 5 23 70 4 23 71 5 24 72 7 24 73 6 24 74 7 25 75 9 25 76 8 25 77 9 26 78 11 26 79 10 26 80 11 27 81 13 27 82 12 27 83 13 28 84 15 28 85 14 28 86 15 29 87 17 29 88 16 29 89 17 30 90 19 30 91 18 30 92 19 31 93 21 31 94 20 31 95 21 32 96 23 32 97 22 32 98 23 33 99 25 33 100 24 33 101 25 34 102 27 34 103 26 34 104 27 35 105 29 35 106 28 35 107 29 36 108 31 36 109 30 36 110 31 37 111 33 37 112 32 37 113 33 38 114 35 38 115 34 38 116 35 39 117 37 39 118 36 39 119 5 40 120 3 40 121 1 40 122 1 41 123 39 41 124 37 41 125 37 42 126 35 42 127 33 42 128 33 43 129 31 43 130 37 43 131 31 44 132 29 44 133 37 44 134 29 45 135 27 45 136 21 45 137 27 46 138 25 46 139 21 46 140 25 47 141 23 47 142 21 47 143 21 48 144 19 48 145 17 48 146 17 49 147 15 49 148 13 49 149 13 50 150 11 50 151 5 50 152 11 51 153 9 51 154 5 51 155 9 52 156 7 52 157 5 52 158 5 53 159 1 53 160 37 53 161 21 54 162 17 54 163 13 54 164 5 55 165 37 55 166 29 55 167 29 56 168 21 56 169 5 56 170 37 57 171 39 57 172 38 57 173 39 58 174 1 58 175 0 58 176 38 59 177 0 59 178 6 59 179 0 60 180 2 60 181 6 60 182 2 61 183 4 61 184 6 61 185 6 62 186 8 62 187 10 62 188 10 63 189 12 63 190 14 63 191 14 64 192 16 64 193 18 64 194 18 65 195 20 65 196 14 65 197 20 66 198 22 66 199 14 66 200 22 67 201 24 67 202 30 67 203 24 68 204 26 68 205 30 68 206 26 69 207 28 69 208 30 69 209 30 70 210 32 70 211 34 70 212 34 71 213 36 71 214 38 71 215 6 72 216 10 72 217 14 72 218 30 73 219 34 73 220 38 73 221 38 74 222 6 74 223 30 74 224 6 75 225 14 75 226 30 75 227</p>
        </triangles>
      </mesh>
    </geometry>
  </library_geometries>
  <library_visual_scenes>
    <visual_scene id="Scene" name="Scene">
      <node id="rfs_chemfill_v9" name="rfs_chemfill_v9" type="NODE">
        <matrix sid="transform">1 0 0 0 0 1 0 0 0 0 1 0 0 0 0 1</matrix>
        <instance_geometry url="#rfs_chemfill_v9-mesh" name="rfs_chemfill_v9">
          <bind_material>
            <technique_common>
              <instance_material symbol="chemfill-material" target="#chemfill-material">
                <bind_vertex_input semantic="UVMap" input_semantic="TEXCOORD" input_set="0"/>
              </instance_material>
            </technique_common>
          </bind_material>
        </instance_geometry>
      </node>
    </visual_scene>
  </library_visual_scenes>
  <scene>
    <instance_visual_scene url="#Scene"/>
  </scene>
</COLLADA>