<?xml version="1.0" encoding="utf-8"?>
<COLLADA xmlns="http://www.collada.org/2005/11/COLLADASchema" version="1.4.1" xmlns:xsi="http://www.w3.org/2001/XMLSchema-instance">
  <asset>
    <contributor>
      <author>Blender User</author>
      <authoring_tool>Blender 4.4.0 commit date:2025-03-17, commit time:17:00, hash:05377985c527</authoring_tool>
    </contributor>
    <created>2026-08-18T01:42:36</created>
    <modified>2026-08-18T01:42:36</modified>
    <unit name="meter" meter="1"/>
    <up_axis>Z_UP</up_axis>
  </asset>
  <library_effects>
    <effect id="chemfill-effect">
      <profile_COMMON>
        <technique sid="common">
          <lambert>
            <emission>
              <color sid="emission">0 0 0 1</color>
            </emission>
            <diffuse>
              <color sid="diffuse">0.8 0.8 0.8 1</color>
            </diffuse>
            <index_of_refraction>
              <float sid="ior">1.5</float>
            </index_of_refraction>
          </lambert>
        </technique>
      </profile_COMMON>
    </effect>
  </library_effects>
  <library_images/>
  <library_materials>
    <material id="chemfill-material" name="chemfill">
      <instance_effect url="#chemfill-effect"/>
    </material>
  </library_materials>
  <library_geometries>
    <geometry id="rfs_chemfill_v10-mesh" name="rfs_chemfill_v10">
      <mesh>
        <source id="rfs_chemfill_v10-mesh-positions">
          <float_array id="rfs_chemfill_v10-mesh-positions-array" count="120">0 2.599491 -4.789301 0 2.599492 4.2307 0.8032873 2.472263 -4.789301 0.8032873 2.472264 4.2307 1.527943 2.103033 -4.789301 1.527943 2.103033 4.2307 2.103033 1.527943 -4.789301 2.103033 1.527943 4.2307 2.472264 0.8032867 -4.789301 2.472264 0.8032873 4.2307 2.599492 -6.00001e-7 -4.789301 2.599492 0 4.2307 2.472264 -0.8032879 -4.789301 2.472264 -0.8032872 4.2307 2.103033 -1.527944 -4.789301 2.103033 -1.527943 4.2307 1.527943 -2.103034 -4.789301 1.527943 -2.103033 4.2307 0.8032873 -2.472265 -4.789301 0.8032873 -2.472264 4.2307 0 -2.599493 -4.789301 0 -2.599492 4.2307 -0.8032873 -2.472265 -4.789301 -0.8032873 -2.472264 4.2307 -1.527943 -2.103034 -4.789301 -1.527943 -2.103033 4.2307 -2.103033 -1.527944 -4.789301 -2.103033 -1.527943 4.2307 -2.472264 -0.8032879 -4.789301 -2.472264 -0.8032872 4.2307 -2.599492 -6.00001e-7 -4.789301 -2.599492 0 4.2307 -2.472264 0.8032867 -4.789301 -2.472264 0.8032873 4.2307 -2.103033 1.527943 -4.789301 -2.103033 1.527943 4.2307 -1.527943 2.103033 -4.789301 -1.527943 2.103033 4.2307 -0.8032873 2.472263 -4.789301 -0.8032873 2.472264 4.2307</float_array>
          <technique_common>
            <accessor source="#rfs_chemfill_v10-mesh-positions-array" count="40" stride="3">
              <param name="X" type="float"/>
              <param name="Y" type="float"/>
              <param name="Z" type="float"/>
            </accessor>
          </technique_common>
        </source>
        <source id="rfs_chemfill_v10-mesh-normals">
          <float_array id="rfs_chemfill_v10-mesh-normals-array" count="177">0.1564342 0.9876884 -1.3e-7 0.4539907 0.8910065 0 0.7071069 0.7071067 0 0.8910066 0.4539904 0 0.9876884 0.1564344 0 0.9876885 -0.1564339 0 0.8910064 -0.4539908 0 0.7071067 -0.707107 0 0.4539906 -0.8910066 0 0.1564342 -0.9876884 0 -0.1564342 -0.9876884 0 -0.4539907 -0.8910065 0 -0.7071071 -0.7071065 0 -0.8910066 -0.4539904 0 -0.9876884 -0.1564344 0 -0.9876885 0.1564339 0 -0.8910064 0.4539908 0 -0.7071065 0.7071071 0 0 0 1 -0.4539906 0.8910066 0 -0.1564342 0.9876884 -1.3e-7 -2.14758e-7 0 -1 0.1564342 0.9876884 0 0.4539906 0.8910066 0 0.7071065 0.7071071 0 0.8910064 0.4539908 0 0.9876885 0.1564339 0 0.9876884 -0.1564344 0 0.8910067 -0.4539905 0 0.7071071 -0.7071066 0 0.4539907 -0.8910065 0 0.1564342 -0.9876884 0 -0.4539906 -0.8910066 0 -0.7071067 -0.707107 0 -0.8910064 -0.4539909 0 -0.9876885 -0.1564339 0 -0.9876884 0.1564344 0 -0.8910066 0.4539904 0 -0.7071069 0.7071067 0 -1.16642e-6 0 1 1.16642e-6 0 1 -4.66568e-6 0 1 3.21537e-6 0 1 8.45211e-7 0 1 -1.60769e-6 0 1 4.66568e-6 0 1 -6.28608e-7 0 1 -0.4539907 0.8910065 0 -0.1564342 0.9876884 0 -8.45212e-7 0 -1 0 0 -1 -2.33285e-6 0 -1 1.16642e-6 0 -1 -1.60769e-6 0 -1 8.45211e-7 0 -1 1.60769e-6 0 -1 1.16642e-6 0 -1 -1.25722e-6 0 -1 2.14758e-7 0 -1</float_array>
          <technique_common>
            <accessor source="#rfs_chemfill_v10-mesh-normals-array" count="59" stride="3">
              <param name="X" type="float"/>
              <param name="Y" type="float"/>
              <param name="Z" type="float"/>
            </accessor>
          </technique_common>
        </source>
        <source id="rfs_chemfill_v10-mesh-map-0">
          <float_array id="rfs_chemfill_v10-mesh-map-0-array" count="456">1 1 0.95 0.5 1 0.5 0.95 1 0.9 0.5 0.95 0.5 0.9 1 0.85 0.5 0.9 0.5 0.85 1 0.8 0.5 0.85 0.5 0.8 1 0.75 0.5 0.8 0.5 0.75 1 0.6999999 0.5 0.75 0.5 0.6999999 1 0.6499999 0.5 0.6999999 0.5 0.6499999 1 0.5999999 0.5 0.6499999 0.5 0.5999999 1 0.5499999 0.5 0.5999999 0.5 0.5499999 1 0.4999999 0.5 0.5499999 0.5 0.4999999 1 0.4499999 0.5 0.4999999 0.5 0.4499999 1 0.3999999 0.5 0.4499999 0.5 0.3999999 1 0.3499999 0.5 0.3999999 0.5 0.3499999 1 0.2999998 0.5 0.3499999 0.5 0.2999998 1 0.2499998 0.5 0.2999998 0.5 0.2499998 1 0.1999998 0.5 0.2499998 0.5 0.1999998 1 0.1499998 0.5 0.1999998 0.5 0.1499998 1 0.09999984 0.5 0.1499998 0.5 0.25 0.00999999 0.4782536 0.1758359 0.3910685 0.444164 0.09999984 1 0.04999983 0.5 0.09999984 0.5 0.04999983 1 -1.56462e-7 0.5 0.04999983 0.5 0.944164 0.1089315 0.6758359 0.02174639 0.51 0.25 1 1 0.95 1 0.95 0.5 0.95 1 0.9 1 0.9 0.5 0.9 1 0.85 1 0.85 0.5 0.85 1 0.8 1 0.8 0.5 0.8 1 0.75 1 0.75 0.5 0.75 1 0.6999999 1 0.6999999 0.5 0.6999999 1 0.6499999 1 0.6499999 0.5 0.6499999 1 0.5999999 1 0.5999999 0.5 0.5999999 1 0.5499999 1 0.5499999 0.5 0.5499999 1 0.4999999 1 0.4999999 0.5 0.4999999 1 0.4499999 1 0.4499999 0.5 0.4499999 1 0.3999999 1 0.3999999 0.5 0.3999999 1 0.3499999 1 0.3499999 0.5 0.3499999 1 0.2999998 1 0.2999998 0.5 0.2999998 1 0.2499998 1 0.2499998 0.5 0.2499998 1 0.1999998 1 0.1999998 0.5 0.1999998 1 0.1499998 1 0.1499998 0.5 0.1499998 1 0.09999984 1 0.09999984 0.5 0.3910685 0.444164 0.3241641 0.4782536 0.25 0.49 0.25 0.49 0.1758359 0.4782536 0.1089315 0.444164 0.1089315 0.444164 0.0558359 0.3910685 0.02174639 0.3241641 0.02174639 0.3241641 0.00999999 0.25 0.1089315 0.444164 0.00999999 0.25 0.02174639 0.1758359 0.1089315 0.444164 0.02174639 0.1758359 0.0558359 0.1089315 0.25 0.00999999 0.0558359 0.1089315 0.1089315 0.0558359 0.25 0.00999999 0.1089315 0.0558359 0.1758359 0.02174639 0.25 0.00999999 0.25 0.00999999 0.3241641 0.02174639 0.3910685 0.0558359 0.3910685 0.0558359 0.444164 0.1089315 0.4782536 0.1758359 0.4782536 0.1758359 0.49 0.25 0.3910685 0.444164 0.49 0.25 0.4782536 0.3241641 0.3910685 0.444164 0.4782536 0.3241641 0.444164 0.3910685 0.3910685 0.444164 0.3910685 0.444164 0.25 0.49 0.1089315 0.444164 0.25 0.00999999 0.3910685 0.0558359 0.4782536 0.1758359 0.3910685 0.444164 0.1089315 0.444164 0.02174639 0.1758359 0.02174639 0.1758359 0.25 0.00999999 0.3910685 0.444164 0.09999984 1 0.04999983 1 0.04999983 0.5 0.04999983 1 -1.56462e-7 1 -1.56462e-7 0.5 0.6758359 0.4782536 0.75 0.49 0.944164 0.3910685 0.75 0.49 0.8241641 0.4782536 0.944164 0.3910685 0.8241641 0.4782536 0.8910685 0.444164 0.944164 0.3910685 0.944164 0.3910685 0.9782536 0.3241641 0.99 0.25 0.99 0.25 0.9782536 0.1758359 0.944164 0.1089315 0.944164 0.1089315 0.8910685 0.0558359 0.8241641 0.02174639 0.8241641 0.02174639 0.75 0.00999999 0.944164 0.1089315 0.75 0.00999999 0.6758359 0.02174639 0.944164 0.1089315 0.6758359 0.02174639 0.6089316 0.0558359 0.51 0.25 0.6089316 0.0558359 0.555836 0.1089315 0.51 0.25 0.555836 0.1089315 0.5217464 0.1758359 0.51 0.25 0.51 0.25 0.5217464 0.3241641 0.555836 0.3910685 0.555836 0.3910685 0.6089316 0.444164 0.6758359 0.4782536 0.944164 0.3910685 0.99 0.25 0.944164 0.1089315 0.51 0.25 0.555836 0.3910685 0.6758359 0.4782536 0.6758359 0.4782536 0.944164 0.3910685 0.51 0.25 0.944164 0.3910685 0.944164 0.1089315 0.51 0.25</float_array>
          <technique_common>
            <accessor source="#rfs_chemfill_v10-mesh-map-0-array" count="228" stride="2">
              <param name="S" type="float"/>
              <param name="T" type="float"/>
            </accessor>
          </technique_common>
        </source>
        <vertices id="rfs_chemfill_v10-mesh-vertices">
          <input semantic="POSITION" source="#rfs_chemfill_v10-mesh-positions"/>
        </vertices>
        <triangles material="chemfill-material" count="76">
          <input semantic="VERTEX" source="#rfs_chemfill_v10-mesh-vertices" offset="0"/>
          <input semantic="NORMAL" source="#rfs_chemfill_v10-mesh-normals" offset="1"/>
          <input semantic="TEXCOORD" source="#rfs_chemfill_v10-mesh-map-0" offset="2" set="0"/>
          <p>1 0 0 2 0 1 0 0 2 3 1 3 4 1 4 2 1 5 5 2 6 6 2 7 4 2 8 7 3 9 8 3 10 6 3 11 9 4 12 10 4 13 8 4 14 11 5 15 12 5 16 10 5 17 13 6 18 14 6 19 12 6 20 15 7 21 16 7 22 14 7 23 17 8 24 18 8 25 16 8 26 19 9 27 20 9 28 18 9 29 21 10 30 22 10 31 20 10 32 23 11 33 24 11 34 22 11 35 25 12 36 26 12 37 24 12 38 27 13 39 28 13 40 26 13 41 29 14 42 30 14 43 28 14 44 31 15 45 32 15 46 30 15 47 33 16 48 34 16 49 32 16 50 35 17 51 36 17 52 34 17 53 21 18 54 13 18 55 5 18 56 37 19 57 38 19 58 36 19 59 39 20 60 0 20 61 38 20 62 14 21 63 22 21 64 30 21 65 1 22 66 3 22 67 2 22 68 3 23 69 5 23 70 4 23 71 5 24 72 7 24 73 6 24 74 7 25 75 9 25 76 8 25 77 9 26 78 11 26 79 10 26 80 11 27 81 13 27 82 12 27 83 13 28 84 15 28 85 14 28 86 15 29 87 17 29 88 16 29 89 17 30 90 19 30 91 18 30 92 19 31 93 21 31 94 20 31 95 21 10 96 23 10 97 22 10 98 23 32 99 25 32 100 24 32 101 25 33 102 27 33 103 26 33 104 27 34 105 29 34 106 28 34 107 29 35 108 31 35 109 30 35 110 31 36 111 33 36 112 32 36 113 33 37 114 35 37 115 34 37 116 35 38 117 37 38 118 36 38 119 5 39 120 3 39 121 1 39 122 1 40 123 39 40 124 37 40 125 37 41 126 35 41 127 33 41 128 33 42 129 31 42 130 37 42 131 31 18 132 29 18 133 37 18 134 29 43 135 27 43 136 21 43 137 27 18 138 25 18 139 21 18 140 25 40 141 23 40 142 21 40 143 21 39 144 19 39 145 17 39 146 17 18 147 15 18 148 13 18 149 13 18 150 11 18 151 5 18 152 11 44 153 9 44 154 5 44 155 9 45 156 7 45 157 5 45 158 5 18 159 1 18 160 37 18 161 21 46 162 17 46 163 13 46 164 5 18 165 37 18 166 29 18 167 29 18 168 21 18 169 5 18 170 37 47 171 39 47 172 38 47 173 39 48 174 1 48 175 0 48 176 38 49 177 0 49 178 6 49 179 0 50 180 2 50 181 6 50 182 2 51 183 4 51 184 6 51 185 6 50 186 8 50 187 10 50 188 10 50 189 12 50 190 14 50 191 14 52 192 16 52 193 18 52 194 18 53 195 20 53 196 14 53 197 20 54 198 22 54 199 14 54 200 22 50 201 24 50 202 30 50 203 24 55 204 26 55 205 30 55 206 26 50 207 28 50 208 30 50 209 30 50 210 32 50 211 34 50 212 34 56 213 36 56 214 38 56 215 6 50 216 10 50 217 14 50 218 30 57 219 34 57 220 38 57 221 38 58 222 6 58 223 30 58 224 6 50 225 14 50 226 30 50 227</p>
        </triangles>
      </mesh>
    </geometry>
  </library_geometries>
  <library_visual_scenes>
    <visual_scene id="Scene" name="Scene">
      <node id="rfs_chemfill_v10" name="rfs_chemfill_v10" type="NODE">
        <matrix sid="transform">1 0 0 0 0 1 0 0 0 0 1 0 0 0 0 1</matrix>
        <instance_geometry url="#rfs_chemfill_v10-mesh" name="rfs_chemfill_v10">
          <bind_material>
            <technique_common>
              <instance_material symbol="chemfill-material" target="#chemfill-material">
                <bind_vertex_input semantic="UVMap" input_semantic="TEXCOORD" input_set="0"/>
              </instance_material>
            </technique_common>
          </bind_material>
        </instance_geometry>
      </node>
    </visual_scene>
  </library_visual_scenes>
  <scene>
    <instance_visual_scene url="#Scene"/>
  </scene>
</COLLADA>